<?xml version="1.0" standalone="no"?>
<!DOCTYPE svg PUBLIC "-//W3C//DTD SVG 20010904//EN"
 "http://www.w3.org/TR/2001/REC-SVG-20010904/DTD/svg10.dtd">
<svg version="1.0" xmlns="http://www.w3.org/2000/svg"
 width="512.000000pt" height="512.000000pt" viewBox="0 0 512.000000 512.000000"
 preserveAspectRatio="xMidYMid meet">

<g transform="translate(0.000000,512.000000) scale(0.100000,-0.100000)"
fill="#000000" stroke="none">
<path d="M4345 4390 c-72 -10 -3347 -587 -3390 -598 -20 -5 3885 -21 3972 -17
1 0 -12 74 -28 163 -21 118 -37 179 -58 221 -32 62 -118 149 -180 181 -86 44
-213 64 -316 50z"/>
<path d="M262 3419 c-29 -5 -74 -20 -101 -33 -60 -31 -133 -111 -149 -164 -17
-56 -17 -2222 0 -2290 16 -65 101 -150 183 -183 l60 -24 2305 0 2305 0 60 24
c82 33 167 118 183 183 17 68 17 2234 0 2290 -16 53 -89 133 -148 163 -26 13
-76 29 -111 35 -80 12 -4509 12 -4587 -1z m1326 -421 l-3 -153 -177 -3 -178
-2 0 155 0 155 180 0 181 0 -3 -152z m2579 -227 c88 -40 123 -154 75 -246 -12
-24 -79 -94 -165 -174 -136 -125 -144 -135 -136 -160 4 -14 61 -201 124 -416
l116 -389 -74 -73 c-72 -71 -90 -81 -112 -65 -6 4 -91 153 -189 332 -98 179
-181 328 -185 332 -4 4 -82 -68 -174 -160 l-167 -167 26 -129 26 -128 -48 -49
c-27 -27 -53 -49 -59 -49 -5 0 -124 114 -264 254 -202 202 -252 257 -247 273
3 10 24 37 46 58 l40 39 130 -27 130 -27 163 166 c89 91 163 169 164 172 2 4
-143 87 -322 185 -178 98 -329 185 -335 192 -18 22 -5 46 69 119 l68 68 403
-121 c222 -67 408 -121 415 -121 6 0 72 65 145 145 83 89 150 153 175 165 50
25 108 25 162 1z m-2579 -388 l3 -153 -181 0 -180 0 0 155 0 155 178 -2 177
-3 3 -152z m0 -615 l-3 -153 -177 -3 -178 -2 0 155 0 155 180 0 181 0 -3 -152z
m0 -615 l3 -153 -181 0 -180 0 0 155 0 155 178 -2 177 -3 3 -152z"/>
</g>
</svg>
