<?xml version="1.0" standalone="no"?>
<!DOCTYPE svg PUBLIC "-//W3C//DTD SVG 20010904//EN"
 "http://www.w3.org/TR/2001/REC-SVG-20010904/DTD/svg10.dtd">
<svg version="1.0" xmlns="http://www.w3.org/2000/svg"
 width="512.000000pt" height="512.000000pt" viewBox="0 0 512.000000 512.000000"
 preserveAspectRatio="xMidYMid meet">

<g transform="translate(0.000000,512.000000) scale(0.100000,-0.100000)"
fill="#000000" stroke="none">
<path d="M2465 4789 c-488 -47 -962 -266 -1322 -612 -206 -198 -343 -386 -469
-642 -144 -294 -224 -625 -224 -928 0 -81 3 -99 23 -127 51 -75 130 -99 204
-61 70 35 85 72 94 233 14 237 52 415 135 620 413 1030 1616 1499 2612 1018
269 -130 515 -327 686 -549 l46 -59 -99 -4 c-82 -2 -105 -7 -127 -24 -53 -39
-69 -71 -69 -134 0 -63 16 -95 69 -134 26 -20 40 -21 331 -21 291 0 305 1 331
21 15 11 37 33 48 48 20 26 21 40 21 331 0 291 -1 305 -21 331 -39 53 -71 69
-134 69 -90 0 -149 -53 -158 -144 l-4 -50 -125 129 c-69 71 -164 161 -212 199
-470 375 -1043 546 -1636 490z"/>
<path d="M2164 3506 c-17 -8 -44 -31 -60 -52 l-29 -37 -3 -189 -3 -188 -175 0
c-199 0 -225 -6 -270 -66 l-29 -37 -3 -364 c-3 -406 -3 -409 66 -461 35 -27
37 -27 223 -30 l188 -3 3 -188 c3 -186 3 -188 30 -223 52 -69 55 -69 462 -66
350 3 366 4 392 24 66 49 69 58 72 264 l3 189 189 3 c206 3 215 6 264 72 20
27 21 39 21 406 0 367 -1 379 -21 406 -49 66 -58 69 -264 72 l-189 3 -3 189
c-3 206 -6 215 -72 264 -26 20 -41 21 -394 23 -294 2 -373 0 -398 -11z"/>
<path d="M4535 2706 c-66 -30 -95 -84 -95 -176 0 -162 -43 -406 -102 -584
-266 -798 -1051 -1338 -1893 -1303 -395 17 -758 144 -1075 377 -112 83 -321
293 -403 405 l-66 90 81 8 c95 9 134 29 166 85 42 75 18 168 -55 213 -38 24
-41 24 -329 24 l-290 0 -37 -25 c-73 -49 -77 -71 -77 -380 0 -253 2 -277 20
-314 28 -58 76 -88 141 -88 96 1 158 73 160 183 0 54 0 54 17 29 48 -69 157
-195 237 -275 562 -558 1375 -780 2140 -583 787 203 1406 818 1609 1598 48
185 68 330 70 492 1 148 -4 165 -66 211 -34 25 -113 32 -153 13z"/>
</g>
</svg>
