<?xml version="1.0" standalone="no"?>
<!DOCTYPE svg PUBLIC "-//W3C//DTD SVG 20010904//EN"
 "http://www.w3.org/TR/2001/REC-SVG-20010904/DTD/svg10.dtd">
<svg version="1.0" xmlns="http://www.w3.org/2000/svg"
 width="512.000000pt" height="512.000000pt" viewBox="0 0 512.000000 512.000000"
 preserveAspectRatio="xMidYMid meet">

<g transform="translate(0.000000,512.000000) scale(0.100000,-0.100000)"
fill="#000000" stroke="none">
<path d="M2395 4949 c-155 -22 -355 -101 -487 -190 -82 -56 -216 -186 -277
-268 -252 -341 -297 -797 -116 -1178 163 -344 476 -583 853 -648 47 -8 112
-15 146 -15 l61 0 573 573 573 573 -6 70 c-23 250 -103 465 -240 644 -56 73
-187 197 -261 247 -234 159 -544 232 -819 192z m423 -686 l2 -203 200 0 200 0
0 -255 0 -255 -200 0 -200 0 0 -205 0 -205 -260 0 -260 0 0 205 0 205 -200 0
-200 0 0 255 0 255 200 0 200 0 0 198 c0 109 3 202 7 206 4 3 119 5 257 4
l251 -3 3 -202z"/>
<path d="M4133 3962 c-29 -10 -69 -31 -90 -45 -21 -15 -423 -411 -893 -882
l-855 -855 223 -222 222 -223 875 875 c634 634 881 887 897 920 33 66 33 207
0 268 -77 144 -239 214 -379 164z m132 -262 c10 -11 18 -34 18 -51 0 -27 -43
-74 -369 -400 -394 -393 -393 -392 -445 -351 -15 13 -22 30 -22 51 0 30 35 68
369 402 325 325 373 369 400 369 18 0 38 -8 49 -20z"/>
<path d="M2092 1976 c-51 -51 -92 -102 -92 -112 0 -26 399 -424 425 -424 13 0
58 37 118 98 l97 97 -218 218 c-119 119 -222 217 -228 217 -6 0 -52 -42 -102
-94z"/>
<path d="M1277 972 c-663 -663 -697 -699 -680 -715 10 -9 44 -28 75 -42 172
-79 436 -70 628 22 70 33 95 56 356 317 l282 281 6 145 6 145 142 142 143 143
-130 130 -130 130 -698 -698z"/>
</g>
</svg>
